# xmcd
#
# Track frame offsets:
#	150
#	21956
#	41192
#	55419
#	69765
#	85145
#	99306
#	115445
#	129418
#	143791
#
# Disc length: 2187 seconds
#
# Revision: 0
# Processed by: cddbd v1.5.2PL0 Copyright (c) Steve Scherf et al.
# Submitted via: EasyCDDAExtractor 11.0.0.1
#
DISCID=8608890a
DTITLE=Divino and João Luiz - Divino and João Luiz A Voz do Carreiro
DYEAR=2009
DGENRE=Serrtanejo
TTITLE0=A Voz do Carreiro
TTITLE1=Traz Pinga
TTITLE2=Rainha da Cidade
TTITLE3=Água no Rego
TTITLE4=Agenda
TTITLE5=Começo do Baile
TTITLE6=Liçaõ de Caboclo
TTITLE7=O Meio Ambiente
TTITLE8=O Milagre do Santo Reis
TTITLE9=A Chegada da Bandeira do Santo Reis
EXTD=
EXTT0=
EXTT1=
EXTT2=
EXTT3=
EXTT4=
EXTT5=
EXTT6=
EXTT7=
EXTT8=
EXTT9=
PLAYORDER=
